<svg xmlns="http://www.w3.org/2000/svg" version="1.0" viewBox="0 0 242.58 242.58"><path fill="#f68f1e" d="M214.19 179.99h7.887v2.534h-2.646v7.726h-2.595v-7.726h-2.646zm9.038 0h3.413l1.318 6.243 1.311-6.243h3.402v10.26h-2.119v-7.824l-1.644 7.824h-1.918l-1.638-7.824v7.824h-2.125zM108.87 156.41l.41-19.035-16.23 10.092c-8.927 5.55-16.362 9.954-16.522 9.785-.835-.882-13.488-22.402-13.489-22.943 0-.35 7.422-4.85 16.493-10s16.495-9.59 16.495-9.865-7.422-4.714-16.495-9.865c-9.072-5.15-16.494-9.65-16.493-10 .001-.536 12.65-22.055 13.48-22.933.154-.163 6.934 4.042 15.066 9.346 8.133 5.303 15.442 9.894 16.243 10.202 1.254.48 1.4-2.118 1.045-18.595l-.412-19.154h27.874l-1.42 39.066 6.812-4.38c3.746-2.41 10.636-6.84 15.31-9.848 4.676-3.008 9.034-5.785 9.686-6.172.773-.46 3.626 3.367 8.214 11.017 3.866 6.447 6.933 11.795 6.815 11.885s-6.74 3.874-14.714 8.408-15.568 8.916-16.873 9.737l-2.373 1.494 15.873 8.972c8.73 4.935 16.425 9.288 17.1 9.673.864.494-.854 4.172-5.807 12.43-5.952 9.925-7.299 11.585-8.762 10.802-.95-.509-7.788-4.695-15.193-9.302a6478 6478 0 0 0-14.786-9.183c-1.087-.663-1.194 2.584-.604 18.297l.717 19.103h-27.868z"/><path fill="#f68f1e" d="M151.04 18.125c-16.006-.058-27.5 1.597-40.406 5.813-4.344 1.419-11.292 4.147-15.438 6.062s-11.834 6.336-17.094 9.844-13.259 9.61-17.781 13.53c-4.522 3.922-11.423 10.823-15.344 15.345s-9.44 11.699-12.25 15.938S27.458 92.2 27.258 92c-.828-.828 6.861-15.657 12.22-23.562l5.75-8.5-6.188 6c-3.4 3.3-9.448 10.347-13.47 15.656-4.02 5.309-9.375 13.409-11.874 18s-6.035 12.619-7.844 17.844l-3.281 9.5v.267c-1.806 5.586-2.58 9.338-2.573 15.504v.002c.035 6.787.75 11.971 2.573 18.078v.149l.51 1.496.005.02c.286.887.6 1.805.932 2.745l1.271 3.739c1.488 4.4 4.393 10.917 6.47 14.469s6.893 9.727 10.687 13.75 9.869 9.307 13.5 11.719c10.835 7.195 21.806 11.506 35.594 13.969 4.4.785 13.571 1.45 20.375 1.5 6.805.049 17.096-.611 22.875-1.47 5.78-.857 15.778-3.083 22.22-4.937 6.44-1.853 16.348-5.405 22.03-7.906l10.344-4.531 6.563 1.969c7.461 2.258 41.434 9.962 41.906 9.5.17-.167-3.695-8.335-8.594-18.156l-8.906-17.875 7.906-9.5c4.363-5.225 10.449-13.287 13.5-17.906s7.699-12.944 10.344-18.5 5.736-13.47 6.875-17.594 2.54-11.457 3.094-16.312c.694-6.093.679-11.514-.063-17.5-.59-4.77-2.137-11.757-3.437-15.5s-4.337-10.27-6.719-14.5c-5.454-9.69-17.06-21.5-25.469-25.938-3.377-1.782-6.428-3.25-6.813-3.25s1.57 1.814 4.375 4.03c5.628 4.45 12.57 12.818 16 19.282l2.25 4.187-2.25-3c-1.23-1.65-5.64-6.424-9.812-10.594-5.785-5.78-9.611-8.575-16.094-11.78-5.528-2.734-11.997-4.918-18.5-6.282-7.388-1.55-13.787-2.117-24.5-2.156zm-.5 11.062c10.957.017 15.68.498 21.781 2.125 4.288 1.143 10.813 3.499 14.5 5.25 4.748 2.255 8.935 5.403 14.312 10.781 5.832 5.832 8.545 9.567 11.75 16.094 2.296 4.675 4.85 11.65 5.656 15.5s1.46 10.442 1.469 14.656c.03 13.253-3.666 28.188-10.5 42.344-1.859 3.85-5.303 9.925-7.656 13.5s-7.79 10.135-12.062 14.594c-4.273 4.459-7.75 8.395-7.75 8.719s3.6 6.084 8 12.812 8 12.61 8 13.062-.234.812-.531.812-6.987-2.475-14.844-5.5c-7.858-3.025-15.442-5.5-16.844-5.5s-4.95 1.07-7.907 2.375c-9.757 4.308-27.953 9.68-37.75 11.156-5.303.8-13.225 1.408-17.625 1.344-15.884-.23-27.826-2.98-41.5-9.562-8.01-3.856-10.846-5.922-18.094-13.188-6.554-6.571-9.475-10.406-12.25-16.125-2.001-4.125-4.323-10.191-5.156-13.47-2.148-8.448-1.944-22.518.469-32.124 1.093-4.35 4.26-12.502 7.031-18.125s7.705-13.762 10.97-18.094c3.263-4.332 9.993-11.733 14.937-16.438 9.602-9.138 21.245-17.367 32.594-23.031 9.822-4.902 22.876-9.341 34.813-11.844 7.656-1.606 13.668-2.142 24.188-2.125zM1.205 138.509c-.02.258-.039.515-.055.779q.025-.394.055-.78m-.148 3.785c-.002.26-.006.523-.004.787q-.001-.396.004-.787m.425 8.103q.05.429.106.852-.055-.424-.106-.852m.559 3.791"/></svg>