<svg xmlns="http://www.w3.org/2000/svg" width="361.23" height="361.23" viewBox="0 0 361.23 361.22"><path fill="none" d="M.323.162h360.78v361.1H.323z"/><path fill="#fff" d="M31.076 77.695h302.99v199.41H31.076z"/><path fill="#de0e17" d="M173.62 227.82c-29.955-3.885-49.742-35.078-40.546-63.917 11.132-34.911 55.455-46.161 81.487-20.684 34.002 33.277 6.206 90.716-40.94 84.601zm45.587-38.411c4.289-2.218 6.011-5.32 6.011-10.828 0-10.465-11.463-15.6-19.355-8.67-10.549 9.262.87 25.949 13.344 19.499z"/><path fill="#ba0b18" d="M167.319 226.315c-51.482-13.844-44.156-96.417 8.554-96.417h4.341v27.777c-.11 28.826.038 35.428 0 56.223v14l-3.75-.066c-2.062-.036-6.177-.719-9.145-1.516z"/><path fill="#020202" d="M100.72 312.82c-63.998-3.579-85.014-9.132-89.498-23.649-13.206-42.755-15.076-140.19-3.903-203.27 3.872-21.858 5.75-25.723 14.328-29.5 42.283-18.616 281.04-18.059 318.57.744 10.537 5.28 15.307 26.766 20.037 90.257 3.99 53.549-4.965 140.09-15.526 150.05-13.987 13.19-140.47 21.157-244.01 15.367zm103.46-52.556c41.159-7.34 79.99-36.062 104.96-77.641l2.268-3.777-4.005-6.723c-47.106-79.071-141.15-100.58-210.69-48.193-22.654 17.068-49.839 51.243-45.883 57.68 37.144 60.443 93.465 89.331 153.35 78.654m-30.934-62.416c-20.612-8.738-15.206-38.949 6.97-38.949 19.517 0 27.428 25.19 11.405 36.317-4.568 3.172-13.934 4.514-18.375 2.631z"/></svg>