<svg xmlns="http://www.w3.org/2000/svg" viewBox="0 0 420 420"><g stroke-width="1.008"><path fill="#5277c3" d="M129.48 22.093h23.899l40.585 70.296h57.345l23.779 41.187h-209.6l23.713-41.072h57.278l-28.696-49.703zm.17 375.92-11.949-20.697 40.585-70.296-28.673-49.662 23.779-41.187 104.8 181.52h-47.426l-28.639-49.604-28.696 49.703z"/><path fill="#7ebae4" d="m21.323 209.93 11.949-20.697h81.171l28.673-49.662h47.558l-104.8 181.52-23.713-41.072L90.8 230.415H33.408zM346.5 397.95h-23.899l-40.585-70.296h-57.345l-23.779-41.187h209.6l-23.713 41.072h-57.278l28.696 49.703zm.15-375.41 11.949 20.697-40.585 70.296 28.673 49.662-23.779 41.187-104.8-181.52h47.426l28.639 49.604 28.696-49.703z"/></g></svg>