<svg xmlns="http://www.w3.org/2000/svg" viewBox="0 0 460 460"><path fill="#8ce1be" d="M82.446 458.52c-11.268-3.56-19.541-10.358-24.503-20.135l-3.442-6.782v-342.1l2.688-5.736c3.605-7.693 11.224-15.117 19.57-19.071 6.416-3.039 7.32-3.193 18.742-3.193 11.516 0 12.288.135 19.122 3.339 8.456 3.965 16.24 11.382 19.582 18.661 2.28 4.967 2.297 5.317 2.582 53.843.221 37.8.56 48.734 1.5 48.36 2.427-.966 28.445-11.01 37.214-14.366 4.95-1.895 10.125-3.923 11.5-4.508 7.87-3.347 23.005-7.982 28.798-8.82 8.804-1.274 27.033-1.257 35.202.032 17.379 2.742 26.204 7.208 57 28.846 2.475 1.739 6.637 4.606 9.25 6.37s4.75 3.5 4.75 3.855c0 .354-1.688 1.106-3.75 1.67s-14.55 4.954-27.75 9.755c-13.2 4.8-28.725 10.417-34.5 12.48-44.224 15.798-57.7 20.628-66 23.656-5.225 1.906-13.1 4.725-17.5 6.263-8.166 2.856-10.263 3.609-26 9.33l-9 3.273-.5 84.48c-.497 83.947-.514 84.51-2.661 89.157-4.348 9.407-14.77 18.165-25.271 21.236-6.488 1.897-20.78 1.955-26.623.11z"/><path fill="#48b889" d="M355.65 399.01c-10.626-1.918-21.144-9.099-27.237-18.595-4.83-7.53-5.414-14.311-5.414-62.99 0-23.335-.139-42.428-.308-42.428-.429 0-14.565 5.272-24.191 9.022-35.747 13.926-43.886 16.722-53.426 18.36-17.873 3.068-36.584 1.452-52.441-4.53-8.892-3.354-14.8-6.613-25.635-14.14-4.127-2.866-12.001-8.316-17.5-12.11s-10.372-7.23-10.83-7.633 2.467-1.868 6.5-3.256 11.157-3.948 15.832-5.689c4.675-1.74 10.975-3.991 14-5.001s9.775-3.407 15-5.326 19.85-7.188 32.5-11.709c35.372-12.64 42.466-15.188 64-22.974 11-3.977 23.6-8.48 28-10.006l8-2.774.538-83.367c.386-59.817.869-84.312 1.708-86.714 1.569-4.49 6.528-12.102 9.963-15.294C347.147.297 369.552-2.73 385.052 5.052c5.669 2.847 13.589 10.578 17.156 16.75l3.292 5.695v345l-2.82 5.356c-6.46 12.267-19.855 20.716-34.18 21.56-4.4.26-10.183.078-12.85-.403"/></svg>