<svg xmlns="http://www.w3.org/2000/svg" viewBox="0 0 256 256"><path d="M11.999 253.33c0-1.194 3.15-46.644 7-101s6.999-100.06 7-101.57c.001-2.454.968-3.225 9.251-7.388 16.433-8.257 30.118-13.33 49.461-18.338 4.212-1.09 4.212-1.09 4.5-9.812L89.5 6.5l9-2.37C112.112.546 135.574.005 150.829 2.923c17.11 3.274 16.04 2.445 16.382 12.691l.29 8.694 8.5 2.27c24.178 6.455 53 19.563 53 24.105 0 1.55 3.376 47.362 7.5 101.8 4.125 54.443 7.5 99.893 7.5 101 0 1.941-.63 2.012-17.918 2.012h-17.917l-.564-11c-.31-6.05-.83-17.525-1.156-25.5-.96-23.558-4.251-55.359-7.554-73-3.93-20.992-8.892-13.19-8.892 13.981 0 22.981 0 22.981-2.661 23.65-1.464.367-7.201 1.633-12.75 2.813-8.946 1.902-17.219 12.557-9.751 12.557.898 0 18.182-3.403 22.912-4.511 2.25-.528 2.25-.528 2.25 14.826v15.353l-8.75 4.112c-14.287 6.715-26.577 10.194-41.5 11.75l-6.75.702V18.278l6.824-.634c11.505-1.07 18.19-4.17 15.14-7.022-8.506-7.95-62.67-5.074-54.822 2.91 1.945 1.98 11.615 4.421 17.6 4.443l4.241.016.517 223.11-6.5-.67c-10.174-1.05-27.772-5.821-39.13-10.61l-10.37-4.373-.274-15.596-.275-15.596 11.275 2.328c15.004 3.098 13.932 3.318 13.577-2.794-.302-5.204-.302-5.204-12.302-7.758l-12-2.555-.269-23.24c-.285-24.692-5.676-35.304-9.14-17.992-4.189 20.938-7.794 58.21-8.75 90.458l-.658 22.208-17.843.293c-17.735.29-17.843.279-17.842-1.879z"/></svg>