<svg xmlns="http://www.w3.org/2000/svg" xml:space="preserve" width="48mm" height="48mm" viewBox="-8 -14 48 48"><path fill="currentColor" d="M0 10.85V.399h3.307c3.308 0 3.308 0 3.308 1.455 0 1.734.01 1.738 1.193.429 2.803-3.103 8.469-2.899 10.785.387.807 1.146.807 1.146 1.832-.019 3.244-3.684 9.458-3.5 11.763.348 1.192 1.99 1.414 3.797 1.414 11.51v6.792h-6.614l-.02-6.68c-.027-8.727-.507-10.13-3.286-9.61-2.844.534-3.4 2.114-3.52 10.007l-.095 6.284h-6.573l-.012-6.416c-.016-8.95-.281-9.884-2.789-9.83-3.189.068-3.89 1.797-4.033 9.95l-.111 6.296H0z"/></svg>
