<svg xmlns="http://www.w3.org/2000/svg" xml:space="preserve" id="plex-logo" version="1.1" viewBox="0 0 1000 1000"><style id="style2" type="text/css">.st0{fill:#fff}</style><path id="path4" stroke-width="6.757" d="M164.19 347.13c-39.865 0-65.541 11.486-87.162 38.514v-29.73H.001v366.22s1.351.676 5.405 1.351c5.406 1.352 33.784 7.433 54.73-10.135 18.243-15.54 22.297-33.784 22.297-54.054v-52.703c22.297 23.65 47.297 33.784 82.432 33.784 75.676 0 133.78-61.486 133.78-143.24 0-88.514-56.08-150-134.46-150zm-14.865 223.65c-42.568 0-76.351-35.135-76.351-77.703 0-41.892 39.865-75.676 76.351-75.676 43.243 0 76.351 33.108 76.351 76.351s-33.784 77.027-76.351 77.027z" class="st0"/><path id="path6" stroke-width="6.757" d="M408.11 488.35c0 31.757 3.378 70.27 34.459 112.16.676.676 2.027 2.703 2.027 2.703-12.838 21.622-28.378 36.486-49.324 36.486-16.216 0-32.432-8.784-45.946-23.65-14.189-16.215-20.946-37.161-20.946-59.458V264.7h79.054z" class="st0"/><path id="polygon8" fill="#ebaf00" d="M118.3 54.2h-14.2l13.8-20.3-13.8-20.4h14.2L132 33.9z" transform="translate(0 264.7)scale(6.7568)"/><path id="polygon10" d="M135.7 31.6 148 13.5h-14.2l-5.1 7.5z" class="st0" transform="translate(0 264.7)scale(6.7568)"/><path id="path12" stroke-width="6.757" d="m869.59 580.92 16.216 22.297c15.541 24.324 35.811 36.486 59.459 36.486 25-.676 42.568-22.297 49.324-30.405 0 0-12.162-10.811-27.703-29.054-20.946-24.324-48.649-68.919-49.324-70.946z" class="st0"/><path id="path16" stroke-width="6.757" d="M632.43 551.86c-16.216 14.865-27.027 22.973-49.324 22.973-39.865 0-62.838-28.378-66.216-59.459h211.49c1.351-4.054 2.027-9.46 2.027-18.243 0-85.811-62.838-150-145.27-150-78.378 0-142.57 65.541-142.57 147.3 0 81.081 64.189 145.27 144.59 145.27 56.081 0 104.73-31.757 131.08-87.838zM585.808 412c35.135 0 61.486 22.973 67.568 53.378h-133.78C526.353 433.621 551.353 412 585.812 412z" class="st0"/></svg>