<svg xmlns="http://www.w3.org/2000/svg" viewBox="0 0 1280 1280"><path fill="#db4b3f" d="M630 21.424c-13.197 1.733-26.752 1.143-40 2.865-31.994 4.157-63.565 11.327-94 22.135-48.624 17.267-92.367 45.116-136 72.15-40.3 24.97-81.352 48.835-122 73.226-54.07 32.444-122.02 60.807-152.57 119.2-20.827 39.812-19.428 82.367-19.428 126v385c0 47.524-4.285 96.488 15.498 141 28.896 65.015 103.93 95.347 161.5 129.82 43.74 26.19 87.228 52.785 131 78.913 41.942 25.035 82.566 50.118 129 66.188 63.033 21.814 130.15 26.799 196 18.894 75.937-9.116 139.25-44.05 204-82.005 54.357-31.866 107.98-64.985 162-97.411 50.305-30.198 108.82-56.09 134.69-112.4 24.519-53.37 17.309-114.85 17.309-172v-306c0-56.875 8.481-121.81-19.12-174-30.538-57.743-93.225-84.804-146.88-117l-137-82.4c-62.579-37.566-122.39-71.38-195-84.911-27.856-5.19-60.666-10.985-89-7.265m-30 198.86c29.494-3.338 62.096 9.48 89 19.903 10.192 3.948 23.946 6.927 27.362 18.81 3.11 10.82-5.238 21.199-10.351 30-12.377 21.308-24.381 42.836-37.01 64-5.694 9.544-17.139 23.29-12.387 35 5.494 13.54 29.345 21.789 41.387 28.655 36.779 20.972 73.325 42.404 110 63.57 11.886 6.86 33.742 26.16 48 19.587 9.696-4.471 13.581-16.252 18.811-24.811 13.25-21.685 25.218-44.144 38.189-66 6.603-11.126 12.605-28.971 28-28.971 12.514 0 27.373 11.793 38 17.82 9.643 5.47 19.914 10.212 27.711 18.32 22.626 23.53 15.289 63.054 15.289 92.83v305c0 7.239 2.67 21.329-7.003 23.526-5.434 1.234-8.772-3.104-10.638-7.527-4.933-11.694-9.404-23.507-14.83-35-21.811-46.201-54.896-87.855-92.23-122.49-40.698-37.751-86.563-65.233-134.3-92.938-37.062-21.51-73.73-43.79-111-64.922-50.002-28.352-101.56-54.755-137.88-100.74-35.534-44.985-28.092-94.828.46-140.91 8.607-13.89 16.612-27.64 30.425-37.037 16.906-11.501 35.386-13.457 55-15.677M266.024 444.6c4.8-1.759 8.985 1.326 11.149 5.408 5.835 11.007 9.363 23.66 14.78 34.985 22.255 46.526 54.806 90.732 93.484 125 72.059 63.845 159.56 107.86 242.57 155.77 47.362 27.335 97.635 51.926 133.7 94.225 11.396 13.366 21.667 29.219 27.21 46 11.973 36.249-2.596 73.284-21.86 104-12.31 19.628-24.65 36.15-47.05 44.738-37.517 14.385-80.905 4.3-117-9.315-10.383-3.917-27.253-7.296-34.197-16.517-8.279-10.993-.463-21.93 4.966-31.907 13.036-23.955 27.056-47.581 41.03-71 6.824-11.437 18.406-25.532 6.988-37.907-11.573-12.542-33.866-21.185-48.787-29.4-32.293-17.776-64.347-36.534-96-55.428-12.207-7.287-35.157-27.051-50-21.45-10.144 3.829-14.011 15.59-19.086 24.184-13.114 22.21-25.66 44.756-38.725 67-6.376 10.855-12.303 28.43-27.19 28.87-12.183.36-25.723-10.684-36-16.327-9.526-5.232-20.077-10.014-27.998-17.583-25.066-23.955-18.001-62.53-18.001-93.96v-305c0-7.216-2.73-21.19 6.015-24.393z"/></svg>