<svg xmlns="http://www.w3.org/2000/svg" viewBox="0 0 1824 1824"><path fill="#fff" d="M1402.7 768.37c.001 1.074-1.85 6.663-4.396 13.904-94.184 26.252-158.83 128.37-188.89 230.55-7.452 2.145-16.653-1.263-24.121-.078-10.058 1.596-72.371 4.236-342.95 7.586-182.77 2.263-336.5 7.633-339.01 8.028-11.678 1.837-18.206 19.302-10.293 26.74 4.33 4.07-32.275 5.773 345.05 10.47 174.17 2.167 319.54 5.623 324.67 6.05 11.216.932 23.487-2.412 32.949.925-13.935 85.102-1.728 159.17 39.924 174.17 0 0 46.686.543 53.186.594 19.239.15 5.796-1.966 4.462-28-.205-4 15.586-31.975 17.598-35.48 0 0 111.38-15.06 133.8-108.77 20.552-6.704 35.292-8.353 114.8-13.008 43.329-2.537 80.284-5.183 82.119-5.881 9.536-3.626 13.55-16.412 7.279-23.18-3.89-4.198-.741-3.87-86.846-9.012-61.781-3.69-88.314-5.93-105.71-13.256 13.893-101.3 8.027-202.02 3.998-226.72-12.516-.001-18.73.305-22.385 2.637l-22.385 69.973c4.506-17.297 33.748-42.34 16.643-59.717-14.266-14.493-21.845-15.692-29.5-28.522z"/><path fill="#f8ac3f" d="M1290.3 1247.9c-6.509-3.792-2.003-20.413 14.516-53.546 26.578-53.309 78.684-98.57 136.09-118.21 22.808-7.804 34.208-9.16 118.49-14.095 43.329-2.537 80.283-5.184 82.118-5.882 9.537-3.626 13.553-16.41 7.28-23.178-3.89-4.198-.741-3.871-86.845-9.013-98.761-5.897-107.46-8.078-132.71-33.283-36.827-36.75-36.482-59.985 2.878-193.8 3.501-11.905 5.664-12.896 28.127-12.894 186.32.013 340.98 141.22 358.48 327.28 4.738 50.393-5.51 127.93-17.908 135.49-4.84 2.951-505.48 4.064-510.51 1.135z"/><path fill="#f27f1f" d="M7.41 1244.6c-3.911-4.221-4.442-7.73-5.536-36.624-5.572-147.09 102.27-269.78 249.79-284.19 8.983-.877 16.333-2.094 16.333-2.703s-.993-6.659-2.206-13.442c-29.556-165.31 155.26-286.7 296.95-195.04 11.065 7.158 10.11 7.638 15.801-7.958 117.13-321.04 560.16-375.71 756.41-93.333 33.921 48.807 72.184 141.31 66.604 161.02-2.9 10.243-41.696 109.32-46.716 119.3-27.617 54.91-84.518 102.69-142.75 119.87-25.867 7.63-5.67 6.986-369.81 11.809-323.21 4.281-338.58 4.594-342.67 6.968-9.668 5.61-11.522 18.72-3.49 24.679 3.354 2.488 13.674 2.703 339.33 7.07 362.56 4.863 342.05 4.19 362.51 11.89 44.154 16.62 67.335 62.273 57.636 113.51-4.658 24.606-13.172 51.618-17.72 56.22l-4.284 4.333H10.492z"/></svg>