<svg xmlns="http://www.w3.org/2000/svg" fill="none" viewBox="0 0 400 400"><g clip-path="url(#a)"><path fill="#18BCF2" d="M320 299c0 8.25-6.75 15-15 15H95c-8.25 0-15-6.75-15-15v-90c0-8.25 4.781-19.782 10.612-25.613l98.774-98.794c5.832-5.831 15.376-5.831 21.207 0l98.793 98.794c5.832 5.831 10.613 17.363 10.613 25.613v90z"/><path fill="#F2F4F9" d="M239.99 158.66h-80.007c-3.318 0-6 2.681-6 6V314h12V170.66h68.007v12h-50.007c-3.318 0-6 2.681-6 6v24c0 3.319 2.682 6 6 6h50.007v12h-50.007c-3.318 0-6 2.681-6 6v24c0 3.319 2.682 6 6 6h50.007v12h-50.007c-3.318 0-6 2.681-6 6s2.682 6 6 6h56.007c3.318 0 6-2.681 6-6v-24c0-3.319-2.682-6-6-6h-50.007v-12h50.007c3.318 0 6-2.681 6-6v-24c0-3.319-2.682-6-6-6h-50.007v-12h50.007c3.318 0 6-2.681 6-6v-24c0-3.319-2.682-6-6-6"/></g><defs><clipPath id="a"><path fill="#fff" d="M0 0h400v400H0z"/></clipPath></defs></svg>