<svg xmlns="http://www.w3.org/2000/svg" viewBox="0 0 506.67 506.67"><defs><linearGradient id="b" x1="189.49" x2="316.72" y1="329.87" y2="329.87" gradientUnits="userSpaceOnUse"><stop offset="0" stop-color="#dc710b"/><stop offset="1" stop-color="#b35808"/></linearGradient><linearGradient id="c" x1="189.55" x2="316.5" y1="274.01" y2="274.01" gradientUnits="userSpaceOnUse"><stop offset="0" stop-color="#f59b11"/><stop offset="1" stop-color="#ed7a01"/></linearGradient><linearGradient id="a" x1="63.864" x2="442.51" y1="252.71" y2="252.71" gradientUnits="userSpaceOnUse"><stop offset="0" stop-color="#0077d3"/><stop offset="1" stop-color="#0c5aa5"/></linearGradient></defs><path fill="url(#a)" d="M251.51.63c85.9.545 190.5 71.74 190.5 175.59v328.56l-377.65-.045v-336.29C64.36 76.075 165.61.085 251.51.625z"/><path fill="#fff" d="M174.6 110.3a64.417 63.853 0 0 0-41.088 14.676 64.417 63.853 0 0 0-22.752 40.658v191.71a146.29 130.84 0 0 0 8.604 23.451 146.29 130.84 0 0 0 134.08 78.504 146.29 130.84 0 0 0 134.41-79.18 146.29 130.84 0 0 0 7.584-20.162v-192.6a64.417 63.853 0 0 0-22.965-42.377 64.417 63.853 0 0 0-41.086-14.676 64.417 63.853 0 0 0-41.088 14.676 64.417 63.853 0 0 0-22.754 40.658v182.74h-29.326v-184.27a64.417 63.853 0 0 0-22.527-39.137 64.417 63.853 0 0 0-41.088-14.676z"/><circle cx="173.7" cy="189.49" r="32.484"/><circle cx="331.88" cy="189.46" r="32.484"/><path fill="url(#b)" d="M316.5 295.38a69.069 23.289 0 0 1-31.037 12.48 69.069 23.289 0 0 1-69.25-.217 69.069 23.289 0 0 1-26.658-9.67 64 64 0 0 0-.06 2.762 63.615 63.615 0 0 0 63.615 63.615 63.615 63.615 0 0 0 63.615-63.615 64 64 0 0 0-.225-5.355z"/><path fill="url(#c)" d="M253.11 237.12a63.615 63.615 0 0 0-62.184 50.197 63.6 63.6 0 0 0-1.371 10.656 69.069 23.289 0 0 0 26.658 9.67 69.069 23.289 0 0 0 69.25.217 69.069 23.289 0 0 0 31.037-12.48 64 64 0 0 0-1.125-7.676 63.615 63.615 0 0 0-62.266-50.584z"/></svg>